<svg width="900" xmlns="http://www.w3.org/2000/svg" height="900" fill="none"><defs><clipPath id="a" class="frame-clip frame-clip-def"><rect rx="0" ry="0" width="900" height="900"/></clipPath></defs><g clip-path="url(#a)"><g class="fills"><rect width="900" height="900" class="frame-background" style="fill: rgb(255, 255, 255); fill-opacity: 0;" ry="0" rx="0" fill="none"/></g><g class="frame-children"><rect rx="280" ry="280" width="900" height="900" style="fill: rgb(31, 31, 31); fill-opacity: 1;" class="fills"/><g class="strokes"><g class="inner-stroke-shape"><defs><clipPath id="c"><use href="#b"/></clipPath><rect rx="280" ry="280" x="0" y="0" width="900" height="900" id="b" style="fill: none; stroke-width: 180; stroke: rgb(24, 24, 24); stroke-opacity: 1;"/></defs><use href="#b" clip-path="url('#c')"/></g></g><g style="fill: rgb(0, 0, 0);"><path d="M377.368 331.096c-3.908-1.615-6.98-4.711-8.516-8.481l-12.706-28.807c-2.373-4.577-9.215-4.577-11.449 0l-12.705 28.807c-1.676 3.77-4.747 6.731-8.517 8.481l-16.196 7c-4.747 2.289-4.747 8.885 0 11.173l16.196 7c3.909 1.616 6.981 4.712 8.517 8.481l12.705 28.942c2.374 4.578 9.215 4.578 11.449 0l12.706-28.942c1.675-3.769 4.747-6.731 8.516-8.481l16.197-7c4.746-2.288 4.746-8.884 0-11.173l-16.197-7ZM578.258 417.869c-11.607-5.168-20.786-14.687-25.645-26.382l-38.2-90.3c-7.019-14.416-27.4-14.416-34.419 0l-38.201 90.3c-4.993 11.695-14.172 21.214-25.645 26.382l-48.323 21.896c-14.308 7.071-14.308 27.743 0 34.814l48.323 21.896c11.608 5.168 20.787 14.687 25.645 26.381l38.201 90.302c7.019 14.415 27.4 14.415 34.419 0l38.2-90.302c4.993-11.694 14.172-21.213 25.645-26.381l48.323-21.896c14.309-7.071 14.309-27.743 0-34.814l-48.323-21.896ZM347.501 508.284c2.143 5.228 6.052 9.279 10.969 11.632l20.678 9.672c6.177 3.138 6.177 12.155 0 15.292l-20.678 9.673c-4.917 2.353-8.826 6.535-10.969 11.632L331.11 605.92c-3.026 6.273-11.725 6.273-14.752 0l-16.39-39.735c-2.144-5.228-6.052-9.279-10.969-11.632l-20.678-9.673c-6.178-3.137-6.178-12.154 0-15.292l20.678-9.672c4.917-2.353 8.825-6.535 10.969-11.632l16.39-39.735c3.027-6.273 11.726-6.273 14.752 0l16.391 39.735Z" style="fill: rgb(249, 194, 60);" class="fills"/></g></g></g></svg>